# xmcd
#
# Track frame offsets:
#	150
#	15239
#	30551
#	45139
#	58859
#	72698
#	88497
#	104306
#	120730
#	137046
#	151150
#	166226
#
# Disc length: 2433 seconds
#
# Revision: 0
# Processed by: cddbd v1.5.2PL0 Copyright (c) Steve Scherf et al.
# Submitted via: EZCDAudioConverter 7.1.5.1
#
DISCID=98097f0c
DTITLE=Feuerherz
DYEAR=1900
DGENRE=
TTITLE0=In meinen Träumen ist die Hölle los
TTITLE1=Tu's noch mal
TTITLE2=Steh auf und Tanz mit mir
TTITLE3=Diese Nacht ist nicht nur zum Schlafen da
TTITLE4=Ich pfeif auf dich
TTITLE5=Warum nicht jetzt
TTITLE6=Das bist du für mich
TTITLE7=Nummer 1
TTITLE8=Hör nie auf
TTITLE9=Geh nicht vorbei
TTITLE10=Wenn du nicht Stopp sagst
TTITLE11=Das Letzte
EXTD=
EXTT0=
EXTT1=
EXTT2=
EXTT3=
EXTT4=
EXTT5=
EXTT6=
EXTT7=
EXTT8=
EXTT9=
EXTT10=
EXTT11=
PLAYORDER=
